<?xml version="1.0" standalone="no"?>
<!DOCTYPE svg PUBLIC "-//W3C//DTD SVG 20010904//EN"
 "http://www.w3.org/TR/2001/REC-SVG-20010904/DTD/svg10.dtd">
<svg version="1.0" xmlns="http://www.w3.org/2000/svg"
 width="261.000000pt" height="261.000000pt" viewBox="0 0 261.000000 261.000000"
 preserveAspectRatio="xMidYMid meet">
<metadata>
Created by potrace 1.11, written by Peter Selinger 2001-2013
</metadata>
<g transform="translate(0.000000,261.000000) scale(0.100000,-0.100000)"
fill="#000000" stroke="none">
<path d="M1135 2595 c-162 -23 -301 -66 -433 -137 -355 -189 -586 -497 -673
-899 -30 -137 -32 -358 -4 -494 77 -380 301 -695 635 -889 186 -109 433 -174
650 -170 221 3 372 39 565 133 207 102 383 254 509 441 139 206 216 452 219
699 1 102 -9 246 -18 261 -2 3 -6 21 -9 40 -9 57 -35 140 -74 230 -121 287
-340 521 -618 659 -94 47 -227 94 -297 106 -17 4 -51 10 -75 16 -69 15 -280
17 -377 4z m402 -129 c329 -70 608 -268 782 -555 64 -107 133 -283 147 -381 2
-14 8 -52 13 -85 14 -93 5 -278 -19 -390 -12 -55 -25 -104 -30 -108 -4 -5 -10
15 -14 44 -11 79 -58 172 -120 238 -64 66 -124 102 -212 127 l-62 17 0 284 c0
156 -2 287 -6 290 -6 6 -495 7 -502 1 -9 -10 -5 -1481 5 -1487 6 -4 124 -6
263 -5 221 2 261 5 316 22 34 11 62 18 62 16 0 -6 -46 -51 -105 -100 -416
-351 -1041 -359 -1475 -21 -250 195 -402 461 -449 782 -9 60 -7 279 3 325 3
13 8 41 11 61 9 61 62 214 101 291 37 74 125 208 149 228 12 10 14 -96 14
-637 0 -356 0 -659 0 -673 l1 -25 253 0 252 0 3 747 2 748 -182 2 -183 3 86
57 c156 105 311 165 494 193 101 16 308 11 402 -9z m513 -1401 c38 -20 81 -83
87 -131 6 -48 -21 -117 -58 -148 -109 -92 -274 -23 -283 119 -9 134 132 223
254 160z"/>
<path d="M977 1952 c-9 -2 -17 -11 -18 -20 -4 -83 -1 -1464 4 -1468 4 -5 322
-7 483 -4 l21 0 -1 739 c-1 407 -4 743 -8 746 -7 7 -448 13 -481 7z"/>
</g>
</svg>
